<svg width="1200" height="800" viewBox="0 0 1200 800" fill="none" xmlns="http://www.w3.org/2000/svg">
  <rect width="1200" height="800" fill="#DCE8F5"/>
  <rect width="1200" height="800" fill="url(#paint0_linear_1_10)"/>
  <path d="M0 585L214 452L412 540L655 322L848 436L1042 302L1200 334V800H0V585Z" fill="#10243F"/>
  <path d="M0 656L215 515L411 613L648 397L838 485L1043 386L1200 454V800H0V656Z" fill="#274B74"/>
  <path d="M775 332L851 388L885 342L935 370L906 434L808 409L775 332Z" fill="#F35D4F"/>
  <path d="M848 388L878 470L840 492L806 403L848 388Z" fill="#1B2536"/>
  <path d="M851 389L822 500L785 498L809 410L851 389Z" fill="#202B3D"/>
  <circle cx="822" cy="319" r="12" fill="#1B2536"/>
  <path d="M0 0H1200V800H0V0Z" fill="url(#paint1_radial_1_10)" fill-opacity="0.4"/>
  <defs>
    <linearGradient id="paint0_linear_1_10" x1="600" y1="0" x2="600" y2="800" gradientUnits="userSpaceOnUse">
      <stop stop-color="#EEF5FC"/>
      <stop offset="1" stop-color="#B8D0E7"/>
    </linearGradient>
    <radialGradient id="paint1_radial_1_10" cx="0" cy="0" r="1" gradientUnits="userSpaceOnUse" gradientTransform="translate(407 140) rotate(51.1009) scale(786.207 919.6)">
      <stop stop-color="white"/>
      <stop offset="1" stop-color="white" stop-opacity="0"/>
    </radialGradient>
  </defs>
</svg>
